<?xml version="1.0" encoding="UTF-8" standalone="no"?><!DOCTYPE svg PUBLIC "-//W3C//DTD SVG 1.1//EN" "http://www.w3.org/Graphics/SVG/1.1/DTD/svg11.dtd"><svg width="100%" height="100%" viewBox="0 0 834 834" version="1.1" xmlns="http://www.w3.org/2000/svg" xmlns:xlink="http://www.w3.org/1999/xlink" xml:space="preserve" xmlns:serif="http://www.serif.com/" style="fill-rule:evenodd;clip-rule:evenodd;stroke-linejoin:round;stroke-miterlimit:2;"><circle cx="416.667" cy="416.667" r="412.5"/><path d="M695.687,596.501l-558.041,-0l0,-9.814l11.936,-0c10.433,-0 18.833,-1.857 25.198,-5.57c4.598,-2.476 8.135,-6.72 10.61,-12.732c1.945,-4.244 2.918,-15.384 2.918,-33.42l-0,-236.596c-0,-18.391 -0.973,-29.884 -2.918,-34.482c-1.945,-4.597 -5.879,-8.62 -11.803,-12.068c-5.924,-3.449 -13.925,-5.173 -24.005,-5.173l-11.936,0l0,-9.814l558.041,0l-0,9.814l-11.936,0c-10.433,0 -18.832,1.857 -25.198,5.57c-4.598,2.476 -8.223,6.72 -10.875,12.732c-1.945,4.244 -2.918,15.384 -2.918,33.421l0,236.596c0,18.39 1.017,29.884 3.051,34.481c2.033,4.598 6.012,8.621 11.936,12.069c5.923,3.448 13.925,5.172 24.004,5.172l11.936,-0l-0,9.814Zm-361.113,-349.855l-20.807,0c-10.432,0 -18.832,1.857 -25.198,5.57c-4.597,2.476 -8.222,6.72 -10.875,12.732c-1.945,4.244 -2.917,15.384 -2.917,33.421l-0,236.596c-0,18.39 1.017,29.884 3.05,34.481c2.034,4.598 6.012,8.621 11.936,12.069c5.924,3.448 13.925,5.172 24.004,5.172l20.807,-0c10.433,-0 18.832,-1.857 25.198,-5.57c4.598,-2.476 8.134,-6.72 10.61,-12.732c1.945,-4.244 2.918,-15.384 2.918,-33.42l-0,-236.596c-0,-18.391 -0.973,-29.884 -2.918,-34.482c-1.945,-4.597 -5.88,-8.62 -11.803,-12.068c-5.924,-3.449 -13.926,-5.173 -24.005,-5.173Zm184.992,0l-20.807,0c-10.433,0 -18.832,1.857 -25.198,5.57c-4.597,2.476 -8.222,6.72 -10.875,12.732c-1.945,4.244 -2.917,15.384 -2.917,33.421l-0,236.596c-0,18.39 1.016,29.884 3.05,34.481c2.033,4.598 6.012,8.621 11.936,12.069c5.923,3.448 13.925,5.172 24.004,5.172l20.807,-0c10.433,-0 18.832,-1.857 25.198,-5.57c4.598,-2.476 8.134,-6.72 10.61,-12.732c1.945,-4.244 2.917,-15.384 2.917,-33.42l0,-236.596c0,-18.391 -0.972,-29.884 -2.917,-34.482c-1.945,-4.597 -5.88,-8.62 -11.804,-12.068c-5.923,-3.449 -13.925,-5.173 -24.004,-5.173Z" style="fill:#fff;"/></svg>